<svg width="36" height="35" viewBox="0 0 36 35" fill="none" xmlns="http://www.w3.org/2000/svg">
<path d="M7.94812 17.5C7.94812 11.2969 12.995 6.25 19.1981 6.25C22.54 6.25 25.5375 7.72312 27.6 10.0444L31.145 6.49938C28.1738 3.275 23.9181 1.25 19.1981 1.25C10.2381 1.25 2.94812 8.54 2.94812 17.5V27.5L12.9481 17.5H7.94812Z" fill="white"/>
<path d="M2.94812 27.8125C2.90812 27.8125 2.8675 27.805 2.82875 27.7888C2.71187 27.7406 2.63562 27.6263 2.63562 27.5V17.5C2.63562 8.3675 10.0656 0.9375 19.1981 0.9375C23.8037 0.9375 28.2425 2.8875 31.375 6.2875C31.4888 6.41063 31.4844 6.60188 31.3663 6.72L27.8213 10.265C27.7606 10.3256 27.6769 10.3606 27.5912 10.3563C27.505 10.3538 27.4237 10.3156 27.3669 10.2513C25.2831 7.9075 22.3062 6.5625 19.1981 6.5625C13.2719 6.5625 8.43062 11.3006 8.265 17.1875H12.9481C13.0744 17.1875 13.1887 17.2638 13.2369 17.3806C13.2856 17.4975 13.2587 17.6319 13.1694 17.7213L3.16937 27.7213C3.10875 27.7806 3.02875 27.8125 2.94812 27.8125ZM19.1981 1.5625C10.41 1.5625 3.26062 8.71188 3.26062 17.5V26.7456L12.1931 17.8125H7.9475C7.775 17.8125 7.635 17.6725 7.635 17.5C7.635 11.1244 12.8219 5.9375 19.1975 5.9375C22.3744 5.9375 25.4212 7.26563 27.6094 9.5925L30.7094 6.4925C27.7081 3.35563 23.53 1.5625 19.1981 1.5625Z" fill="#414141"/>
<path d="M4.19812 24.795C4.02562 24.795 3.88562 24.655 3.88562 24.4825V17.5C3.88562 9.05687 10.755 2.1875 19.1981 2.1875C23.0531 2.1875 26.7437 3.63687 29.5906 6.26875C29.7175 6.38625 29.725 6.58375 29.6081 6.71062C29.4906 6.83687 29.2931 6.84437 29.1662 6.72812C26.4356 4.20312 22.895 2.8125 19.1981 2.8125C11.0994 2.8125 4.51062 9.40125 4.51062 17.5V24.4819C4.51062 24.655 4.37062 24.795 4.19812 24.795Z" fill="#414141"/>
<path d="M30.4481 17.5C30.4481 23.7031 25.4013 28.75 19.1981 28.75C15.8563 28.75 12.8588 27.2769 10.7963 24.9556L7.25125 28.5006C10.2231 31.7256 14.4781 33.75 19.1981 33.75C28.1581 33.75 35.4481 26.46 35.4481 17.5V7.5L25.4481 17.5H30.4481Z" fill="white"/>
<path d="M19.1981 34.0625C14.5925 34.0625 10.1544 32.1125 7.02125 28.7119C6.9075 28.5887 6.91187 28.3975 7.03 28.2794L10.575 24.7344C10.6356 24.6737 10.7225 24.6481 10.805 24.6431C10.8912 24.6456 10.9725 24.6837 11.0294 24.7481C13.1125 27.0931 16.0894 28.4381 19.1975 28.4381C25.1237 28.4381 29.965 23.7 30.1306 17.8131H25.4475C25.3212 17.8131 25.2069 17.7369 25.1587 17.62C25.11 17.5031 25.1369 17.3687 25.2262 17.2794L35.2262 7.27937C35.3156 7.18999 35.45 7.16249 35.5669 7.21187C35.6837 7.25999 35.76 7.37437 35.76 7.50062V17.5006C35.7606 26.6325 28.3306 34.0625 19.1981 34.0625ZM7.68625 28.5075C10.6881 31.645 14.8662 33.4381 19.1981 33.4381C27.9862 33.4381 35.1356 26.2887 35.1356 17.5006V8.25437L26.2025 17.1875H30.4481C30.6206 17.1875 30.7606 17.3275 30.7606 17.5C30.7606 23.8756 25.5737 29.0625 19.1981 29.0625C16.0212 29.0625 12.9744 27.7344 10.7862 25.4069L7.68625 28.5075Z" fill="#414141"/>
<path d="M19.1981 32.8125C15.3431 32.8125 11.6525 31.3631 8.80563 28.7313C8.67875 28.6138 8.67125 28.4163 8.78813 28.2894C8.90563 28.1625 9.10313 28.155 9.23 28.2719C11.9613 30.7969 15.5013 32.1869 19.1988 32.1869C27.2975 32.1869 33.8863 25.5981 33.8863 17.4994V10.5181C33.8863 10.3456 34.0263 10.2056 34.1988 10.2056C34.3713 10.2056 34.5113 10.3456 34.5113 10.5181V17.5C34.5106 25.9431 27.6413 32.8125 19.1981 32.8125Z" fill="white"/>
<path d="M27.14 9.57688C25.1031 7.53313 22.3044 6.25 19.1981 6.25C18.7787 6.25 18.3662 6.27687 17.9594 6.32187C20.79 6.64125 23.3012 8.01938 25.1 10.0444H27.6C27.4381 9.91125 27.2868 9.74938 27.14 9.57688Z" fill="white"/>
<path d="M27.6 10.3569H25.1C25.0106 10.3569 24.9256 10.3188 24.8662 10.2519C23.06 8.21875 20.595 6.93312 17.9244 6.63187C17.7662 6.61375 17.6469 6.48 17.6469 6.32062C17.6469 6.16125 17.7669 6.0275 17.925 6.01C18.3744 5.96062 18.7906 5.93625 19.1981 5.93625C22.265 5.93625 25.1644 7.15 27.3619 9.355C27.3675 9.36062 27.3737 9.36688 27.3787 9.37313C27.5381 9.56063 27.6719 9.6975 27.7994 9.8025C27.9012 9.88625 27.9394 10.025 27.895 10.1494C27.8506 10.2737 27.7319 10.3569 27.6 10.3569ZM25.2394 9.73188H26.8537C25.1587 8.05812 23.0319 7.00062 20.7425 6.67187C22.4437 7.31312 23.9869 8.35562 25.2394 9.73188Z" fill="#414141"/>
<path d="M2.94812 17.5C2.94812 8.96187 9.56874 1.94563 17.945 1.30313C17.5325 1.27188 17.1181 1.25 16.6981 1.25C7.73812 1.25 0.44812 8.54 0.44812 17.5V27.5H2.94812V17.5Z" fill="white"/>
<path d="M2.94812 27.8125H0.44812C0.27562 27.8125 0.13562 27.6725 0.13562 27.5V17.5C0.13562 8.3675 7.56562 0.9375 16.6981 0.9375C17.0862 0.9375 17.4906 0.954375 17.9694 0.99125C18.1319 1.00375 18.2575 1.13938 18.2575 1.30313C18.2575 1.46688 18.1312 1.6025 17.9687 1.615C9.72062 2.2475 3.26062 9.225 3.26062 17.5V27.5C3.26062 27.6731 3.12062 27.8125 2.94812 27.8125ZM0.76062 27.1875H2.63562V17.5C2.63562 10.2863 7.36125 4.02063 13.9431 1.80063C6.46312 3.10938 0.76062 9.65125 0.76062 17.5V27.1875Z" fill="#414141"/>
<path d="M35.4481 7.5H32.9481L22.9481 17.5H25.4481L35.4481 7.5Z" fill="white"/>
<path d="M25.4481 17.8125H22.9481C22.8219 17.8125 22.7075 17.7363 22.6594 17.6194C22.6106 17.5025 22.6375 17.3681 22.7269 17.2788L32.7269 7.27875C32.7856 7.22 32.865 7.1875 32.9481 7.1875H35.4481C35.5744 7.1875 35.6887 7.26375 35.7369 7.38063C35.7856 7.4975 35.7587 7.63188 35.6694 7.72125L25.6694 17.7213C25.61 17.7794 25.5306 17.8125 25.4481 17.8125ZM23.7025 17.1875H25.3187L34.6937 7.8125H33.0775L23.7025 17.1875Z" fill="#414141"/>
<path d="M7.25061 28.5006L10.7956 24.9556H8.29561L4.75061 28.5006C7.72248 31.7256 11.9775 33.75 16.6975 33.75C17.1194 33.75 17.5369 33.7288 17.9506 33.6969C13.7319 33.3744 9.95811 31.4381 7.25061 28.5006Z" fill="white"/>
<path d="M16.6981 34.0625C12.0925 34.0625 7.65437 32.1125 4.52125 28.7119C4.4075 28.5888 4.41187 28.3975 4.53 28.2794L8.075 24.7344C8.13375 24.6756 8.21312 24.6431 8.29625 24.6431H10.7962C10.9225 24.6431 11.0369 24.7194 11.085 24.8363C11.1337 24.9531 11.1069 25.0875 11.0175 25.1769L7.68625 28.5081C10.4106 31.3575 14.0531 33.0863 17.975 33.3862C18.1381 33.3987 18.2637 33.5344 18.2637 33.6981C18.2637 33.8619 18.1381 33.9975 17.975 34.01C17.4944 34.0456 17.0887 34.0625 16.6981 34.0625ZM5.18625 28.5075C7.53062 30.9575 10.5912 32.5875 13.8837 33.1844C11.2831 32.3037 8.925 30.7787 7.02187 28.7125C6.90812 28.5894 6.9125 28.3981 7.03062 28.28L10.0425 25.2681H8.42625L5.18625 28.5075Z" fill="#414141"/>
<path d="M27.9481 17.5C27.9481 23.2844 23.5587 28.0587 17.9369 28.6781C18.3512 28.725 18.7712 28.75 19.1981 28.75C25.4012 28.75 30.4481 23.7031 30.4481 17.5H27.9481Z" fill="white"/>
<path d="M19.1981 29.0625C18.7737 29.0625 18.3375 29.0375 17.9019 28.9888C17.7437 28.9706 17.6244 28.8369 17.6244 28.6775C17.6244 28.5181 17.7444 28.3844 17.9025 28.3669C23.4506 27.7556 27.635 23.0838 27.635 17.4994C27.635 17.3269 27.775 17.1869 27.9475 17.1869H30.4475C30.62 17.1869 30.76 17.3269 30.76 17.4994C30.7606 23.8756 25.5737 29.0625 19.1981 29.0625ZM28.2562 17.8125C28.1294 22.6013 25.0912 26.7088 20.7625 28.3256C25.9544 27.5788 29.98 23.1719 30.1312 17.8125H28.2562Z" fill="#414141"/>
</svg>
